<svg width="249" height="249" viewBox="0 0 249 249" fill="none" xmlns="http://www.w3.org/2000/svg">
<circle cx="124.5" cy="124.5" r="124.5" fill="url(#paint0_linear_6_5)"/>
<g filter="url(#filter0_d_6_5)">
<path d="M119.32 140.012C119.32 147.253 117.852 153.809 114.916 159.68C111.981 165.453 107.48 170.053 101.413 173.477C95.4439 176.804 87.8115 178.468 78.5155 178.468C65.5013 178.468 55.5693 174.945 48.7197 167.9C41.9679 160.757 38.592 151.363 38.592 139.718V72.2007H51.802V140.159C51.802 148.672 54.0526 155.277 58.5538 159.974C63.1528 164.671 70.0514 167.019 79.2494 167.019C85.6098 167.019 90.747 165.894 94.6611 163.643C98.673 161.295 101.609 158.115 103.468 154.103C105.327 149.993 106.257 145.296 106.257 140.012V72.2007H119.32V140.012ZM223.597 177H208.039L170.904 126.949L160.189 136.343V177H146.979V72.2007H160.189V123.866C163.125 120.539 166.109 117.213 169.143 113.886C172.176 110.559 175.21 107.232 178.243 103.905L206.571 72.2007H221.983L180.445 117.849L223.597 177Z" fill="white"/>
</g>
<defs>
<filter id="filter0_d_6_5" x="38.592" y="72.2007" width="194.645" height="118.316" filterUnits="userSpaceOnUse" color-interpolation-filters="sRGB">
<feFlood flood-opacity="0" result="BackgroundImageFix"/>
<feColorMatrix in="SourceAlpha" type="matrix" values="0 0 0 0 0 0 0 0 0 0 0 0 0 0 0 0 0 0 127 0" result="hardAlpha"/>
<feOffset dx="4.81967" dy="7.22951"/>
<feGaussianBlur stdDeviation="2.40984"/>
<feComposite in2="hardAlpha" operator="out"/>
<feColorMatrix type="matrix" values="0 0 0 0 0 0 0 0 0 0 0 0 0 0 0 0 0 0 0.24 0"/>
<feBlend mode="normal" in2="BackgroundImageFix" result="effect1_dropShadow_6_5"/>
<feBlend mode="normal" in="SourceGraphic" in2="effect1_dropShadow_6_5" result="shape"/>
</filter>
<linearGradient id="paint0_linear_6_5" x1="-36" y1="146" x2="270" y2="147" gradientUnits="userSpaceOnUse">
<stop offset="0.0227581" stop-color="#6F61C0"/>
<stop offset="0.18278" stop-color="#A084E8" stop-opacity="0.890625"/>
<stop offset="0.787392" stop-color="#8BE8E5"/>
<stop offset="1" stop-color="#D5FFE4"/>
</linearGradient>
</defs>
</svg>
